<svg id="visual" viewBox="0 0 900 600" width="900" height="600" xmlns="http://www.w3.org/2000/svg" xmlns:xlink="http://www.w3.org/1999/xlink" version="1.1"><g><g transform="translate(93 118)"><path d="M0 -48.6L46.2 -15L28.6 39.3L-28.6 39.3L-46.2 -15Z" fill="#297EA6"></path></g><g transform="translate(527 554)"><path d="M0 -41L39 -12.7L24.1 33.2L-24.1 33.2L-39 -12.7Z" fill="#297EA6"></path></g><g transform="translate(272 21)"><path d="M0 -47L44.7 -14.5L27.6 38L-27.6 38L-44.7 -14.5Z" fill="#297EA6"></path></g><g transform="translate(42 25)"><path d="M0 -34L32.3 -10.5L20 27.5L-20 27.5L-32.3 -10.5Z" fill="#297EA6"></path></g><g transform="translate(454 455)"><path d="M0 -44L41.8 -13.6L25.9 35.6L-25.9 35.6L-41.8 -13.6Z" fill="#297EA6"></path></g><g transform="translate(590 151)"><path d="M0 -32L30.4 -9.9L18.8 25.9L-18.8 25.9L-30.4 -9.9Z" fill="#297EA6"></path></g><g transform="translate(225 527)"><path d="M0 -47L44.7 -14.5L27.6 38L-27.6 38L-44.7 -14.5Z" fill="#297EA6"></path></g><g transform="translate(221 419)"><path d="M0 -41L39 -12.7L24.1 33.2L-24.1 33.2L-39 -12.7Z" fill="#297EA6"></path></g><g transform="translate(854 331)"><path d="M0 -45L42.8 -13.9L26.5 36.4L-26.5 36.4L-42.8 -13.9Z" fill="#297EA6"></path></g><g transform="translate(407 99)"><path d="M0 -31L29.5 -9.6L18.2 25.1L-18.2 25.1L-29.5 -9.6Z" fill="#297EA6"></path></g><g transform="translate(719 132)"><path d="M0 -41L39 -12.7L24.1 33.2L-24.1 33.2L-39 -12.7Z" fill="#297EA6"></path></g><g transform="translate(698 274)"><path d="M0 -46L43.7 -14.2L27 37.2L-27 37.2L-43.7 -14.2Z" fill="#297EA6"></path></g><g transform="translate(794 21)"><path d="M0 -28L26.6 -8.7L16.5 22.7L-16.5 22.7L-26.6 -8.7Z" fill="#297EA6"></path></g></g></svg>